<?xml version="1.0" standalone="no"?>
<!DOCTYPE svg PUBLIC "-//W3C//DTD SVG 20010904//EN"
 "http://www.w3.org/TR/2001/REC-SVG-20010904/DTD/svg10.dtd">
<svg version="1.0" xmlns="http://www.w3.org/2000/svg"
 width="392.000000pt" height="708.000000pt" viewBox="0 0 392.000000 708.000000"
 preserveAspectRatio="xMidYMid meet">
<metadata>
Created by potrace 1.10, written by Peter Selinger 2001-2011
</metadata>
<g transform="translate(0.000000,708.000000) scale(0.100000,-0.100000)"
fill="#000000" stroke="none">
<path d="M456 7054 c-148 -36 -309 -163 -373 -295 -68 -142 -63 132 -63 -3212
0 -2145 3 -3041 11 -3079 40 -193 197 -366 391 -429 l73 -24 1465 0 1465 0 72
23 c86 27 207 105 263 170 52 61 105 162 127 243 17 60 18 232 18 3099 l0
3035 -27 80 c-67 197 -226 344 -420 390 -92 22 -2912 21 -3002 -1z m1912 -226
c16 -16 15 -23 -4 -42 -13 -14 -64 -16 -399 -16 -211 0 -390 3 -399 6 -16 6
-22 45 -9 57 3 4 185 7 403 7 295 0 399 -3 408 -12z m1067 -303 l25 -24 0
-2768 c-1 -2160 -3 -2771 -13 -2784 -7 -9 -22 -21 -34 -27 -16 -9 -385 -12
-1458 -12 l-1437 0 -29 29 -29 29 0 2757 c0 2076 3 2762 12 2778 6 12 18 27
27 34 12 10 342 12 1464 13 l1448 0 24 -25z m-1385 -5875 c22 -11 52 -39 67
-62 39 -59 40 -147 1 -205 -76 -115 -252 -108 -320 12 -28 50 -29 125 -3 179
41 86 164 122 255 76z"/>
</g>
</svg>
