<?xml version="1.0" encoding="utf-8"?>
<!-- Generator: Adobe Illustrator 16.0.0, SVG Export Plug-In . SVG Version: 6.00 Build 0)  -->
<!DOCTYPE svg PUBLIC "-//W3C//DTD SVG 1.1//EN" "http://www.w3.org/Graphics/SVG/1.1/DTD/svg11.dtd">
<svg version="1.1" id="Layer_1" xmlns="http://www.w3.org/2000/svg" xmlns:xlink="http://www.w3.org/1999/xlink" x="0px" y="0px"
	 width="512px" height="512px" viewBox="0 0 512 512" enable-background="new 0 0 512 512" xml:space="preserve">
<path fill-rule="evenodd" clip-rule="evenodd" fill="#010101" d="M416,0H96C78.313,0,64,14.328,64,32v448c0,17.688,14.313,32,32,32
	h320c17.688,0,32-14.313,32-32V32C448,14.328,433.688,0,416,0z M256,496c-13.25,0-24-10.75-24-24s10.75-24,24-24s24,10.75,24,24
	S269.25,496,256,496z M400,432H112V48h288V432z"/>
</svg>
