<?xml version="1.0" encoding="UTF-8" standalone="no"?>
<!-- Created with Inkscape (http://www.inkscape.org/) -->

<svg
   xmlns:dc="http://purl.org/dc/elements/1.1/"
   xmlns:cc="http://creativecommons.org/ns#"
   xmlns:rdf="http://www.w3.org/1999/02/22-rdf-syntax-ns#"
   xmlns:svg="http://www.w3.org/2000/svg"
   xmlns="http://www.w3.org/2000/svg"
   version="1.1"
   width="650"
   height="650"
   viewBox="0 0 520.00002 519.99998"
   id="svg2"
   style="fill-rule:evenodd">
  <metadata
     id="metadata22">
    <rdf:RDF>
      <cc:Work
         rdf:about="">
        <dc:format>image/svg+xml</dc:format>
        <dc:type
           rdf:resource="http://purl.org/dc/dcmitype/StillImage" />
        <dc:title></dc:title>
      </cc:Work>
    </rdf:RDF>
  </metadata>
  <defs
     id="defs4">
    <linearGradient
       id="linearGradient3783">
      <stop
         id="stop3791"
         style="stop-color:#deaa87;stop-opacity:0.49803922"
         offset="0" />
      <stop
         id="stop3787"
         style="stop-color:#d8c3b4;stop-opacity:0.04705882"
         offset="1" />
    </linearGradient>
    <marker
       markerUnits="strokeWidth"
       refX="0"
       refY="5"
       markerWidth="4"
       markerHeight="3"
       orient="auto"
       viewBox="0 0 10 10"
       id="ArrowEnd">
      <path
         d="M 0,0 10,5 0,10 z"
         id="path7" />
    </marker>
    <marker
       markerUnits="strokeWidth"
       refX="10"
       refY="5"
       markerWidth="4"
       markerHeight="3"
       orient="auto"
       viewBox="0 0 10 10"
       id="ArrowStart">
      <path
         d="M 10,0 0,5 10,10 z"
         id="path10" />
    </marker>
  </defs>
  <g
     transform="translate(-45.818929,-146.79372)"
     id="g12">
    <path
       d="m 633.77402,478.10336 a 294.42114,294.42114 0 1 1 -588.842288,0 294.42114,294.42114 0 1 1 588.842288,0 z"
       transform="matrix(0.87389562,0,0,0.86425706,8.153285,-5.6659592)"
       id="path3001"
       style="fill:#FCFCFB;fill-opacity:1;fill-rule:nonzero;stroke:none" />
    <path
       d="m 231.65774,310.96423 c 21.8312,6.8084 -24.84166,29.35276 -9.86077,13.98891 3.94743,-5.03506 -1.46943,-11.18521 8.28914,-12.25216 l 0.63052,-1.22678 0.94111,-0.50997 z m -40.7,-88.183 c 15.91793,-4.77277 17.22489,-12.49772 33.2549,-19.94555 3.31218,-7.78807 10.85536,-10.66765 17.2431,-14.72545 -14.43281,2.67663 -2.88151,-10.54533 -17.441,0.719 6.22557,-10.74241 -19.73071,-3.4486 -1.402,-3.734 -9.04969,10.24372 -28.16914,26.71848 -42.45897,35.00184 -2.48409,-1.74099 18.22362,-18.91073 0.22428,-4.49101 -5.66851,10.31297 -23.3128,13.9312 -11.30708,1.3088 8.62157,-4.58436 5.35984,-15.26148 12.14177,-9.09663 11.19425,-4.82221 8.64304,-6.00847 19.52109,-11.76666 -9.17501,-2.18877 -21.30027,7.75905 -30.88009,10.14766 25.30971,-20.79926 -15.99302,-3.51573 -21.304,8.845 -9.31412,9.38013 -31.47434,28.64206 -9.63909,11.99087 5.17283,2.78798 32.12914,-28.72475 29.41902,-12.21929 -5.99379,5.47668 -8.22976,10.18669 -15.18014,13.81367 -11.21591,11.96893 22.31572,-10.54853 1.68233,6.2495 -13.71764,9.122 -11.71633,27.1469 -25.3935,35.70733 -8.98188,2.77377 -11.48653,25.89934 -13.88362,17.75492 -12.37971,-11.39302 25.323,-21.23365 3.801,-20.26052 -1.63628,-4.24827 -2.75338,6.55973 -7.537,-0.0775 -5.91659,8.05996 1.35119,18.8051 -10.16331,16.68239 -10.775379,0.0852 14.36513,-12.10608 -5.147919,-8.64452 -3.05659,-1.45466 -7.976064,6.45924 -12.881942,13.00274 -14.075109,10.28643 -18.708023,25.91246 -24.166722,43.35552 -15.858062,50.67381 -15.320635,117.93503 4.936635,165.63634 44.571508,104.9559 140.898468,167.99759 251.184738,163.3477 -10.37435,-4.2598 -34.039,-19.1084 -12.32048,-28.58717 -12.28429,-8.60035 -6.52753,-21.61807 -23.365,-30.148 11.13658,-9.58567 2.42855,-23.66085 -11.58987,-20.63779 -12.46762,1.87454 -19.14426,-13.07995 -32.1728,-6.64963 -18.34015,1.21381 -38.31246,-5.28636 -54.9772,-13.97042 -15.73382,-15.08257 -33.03185,-33.85187 -31.86116,-54.97141 4.13901,-11.41035 6.72689,-18.74938 3.97803,-29.63975 13.22444,-11.69646 18.94415,-30.26867 36.932,-30.148 -3.27369,-14.96511 39.20864,-32.32689 10.78649,-33.2587 -0.48735,-14.63112 1.43455,-19.14207 7.39581,-33.57428 -1.83086,-24.84701 25.45452,6.47874 31.90661,-7.88313 13.01042,-14.78037 -23.30613,-31.18628 5.32437,-27.13405 11.01846,0.14327 14.77304,-9.56858 0.36072,-5.17584 -11.13487,-0.78985 -21.03781,1.79245 -6.783,-7.537 -11.50706,-3.33369 13.09294,-8.00972 0.93857,-15.74856 -0.65693,-4.44026 5.05388,-6.25926 -0.9265,-5.73194 -3.05303,-4.17401 8.8214,-9.70105 -1.44807,-12.1155 5.44551,-15.5875 4.78072,-2.82469 8.39832,-4.93899 4.40365,-0.87019 10.0039,4.91924 2.86468,11.42199 6.15752,11.15807 14.19501,23.86807 10.523,31.635 6.51676,-5.20584 19.04085,-9.42775 22.611,-14.32 -9.56183,-17.91429 19.2641,-26.65999 6.43863,-10.50688 -5.16989,12.01597 9.46993,10.12867 -0.0696,3.08288 7.76516,1.78428 12.68907,-6.18014 5.83549,-14.72602 -1.24757,-11.96119 -14.85642,10.29951 -17.70298,-3.78824 -8.87918,-21.33523 23.30382,-24.4049 27.18299,-42.56549 -7.7063,1.692 18.24784,-23.85403 29.47788,-11.95404 12.40142,0.59493 36.83144,15.58875 11.25701,12.55373 0.74968,-0.8439 3.88156,13.68321 12.56566,11.84155 9.81543,2.31686 -6.67355,-7.06139 2.02611,-6.2694 -1.84428,-7.09905 6.48605,-11.76103 -2.39416,-17.56109 14.69945,-2.16628 2.67259,5.98057 12.43492,10.44725 10.11811,6.85016 -5.95844,-23.35161 8.66808,-11.95425 18.4881,-19.57988 -21.83823,-1.26457 -22.56625,-19.1055 -8.183,-13.89842 4.82997,-24.23715 4.71342,-5.12537 3.52314,13.85188 19.378,9.84858 30.19689,11.87159 4.83598,0.97021 -25.32986,-13.11155 -15.51401,-17.78872 6.98837,-2.20814 9.70152,0.0105 5.41095,-4.416 -2.91075,-5.09762 -8.82378,-11.13644 -11.6112,-16.42256 -18.37933,-10.25446 22.72626,-0.19276 8.6172,-10.81744 -6.18064,0.19237 5.01147,-10.99622 -10.54387,-8.47288 -11.03247,7.17374 -31.19338,-12.00325 -9.88343,-1.16393 16.52017,1.34475 -17.15739,-14.01519 -25.34633,-14.99961 -26.32735,-3.16489 -47.20074,-0.54623 -72.88158,2.75179 -14.09927,1.81068 -11.72081,11.95678 -1.18379,9.82563 -2.84836,8.14655 -17.1553,5.93964 -1.843,6.638 -9.61461,4.06798 19.76669,5.26243 6.365,13.712 7.90939,3.72905 20.4021,9.85228 11.89681,11.42383 16.98635,-0.40498 -12.13751,13.71593 -12.94067,20.82242 -11.52034,4.58105 -21.39882,16.90263 -26.07432,12.2362 8.58723,6.60268 -8.31485,7.79442 -12.95962,5.20373 -11.50988,-4.14466 -27.91611,7.28741 -39.23511,15.12018 -20.13726,13.95557 -6.46246,-22.25701 8.46491,-29.38236 l 0,0 z m 238.924,401.724 c 6.40663,-13.23562 18.30773,-22.15766 30.66355,-31.87549 15.79897,-5.80706 -10.54785,22.36259 -19.3738,25.80711 -3.51847,2.42431 -7.00588,5.10243 -11.28975,6.06838 z m 3.015,-18.843 c -1.70789,18.88959 -28.86368,19.39437 -37.555,33.294 -8.79087,4.39791 -27.58852,16.81729 -5.39408,8.74285 56.78486,-20.65858 86.95044,-50.33453 105.26353,-69.12042 41.86025,-42.94099 68.19469,-107.94575 66.67953,-178.7186 -1.99063,-5.1766 -11.6479,-50.63991 -12.99371,-29.06697 -0.15705,22.80351 -0.68446,45.70125 1.21661,68.38378 -6.514,30.33311 -15.81271,-35.44397 -17.60357,-18.74596 -6.67479,-1.61269 -7.42999,-5.14132 -15.72531,-9.23268 -6.06033,9.20306 -19.57814,20.72739 -28.05317,13.79648 -5.84207,17.86075 -20.81533,2.55547 -26.44083,-1.72848 -14.22343,12.05809 20.19336,25.65398 23.98995,16.28943 4.58178,-13.93656 1.75217,-10.95546 10.44662,-5.73743 11.04913,2.3416 1.83806,23.45322 -1.51239,33.05216 -9.02829,12.0993 -13.55761,29.2514 -28.5494,39.12204 -8.52857,11.15512 -19.55919,17.20335 -19.44878,-2.8332 -10.13878,-14.67356 -23.23783,-17.97016 -31.44862,-34.593 -0.8842,-12.39843 -11.32667,-15.76536 -14.24388,-8.21375 -7.06733,-4.64191 10.60583,20.08304 14.83331,23.4748 6.50154,18.50029 18.39786,31.29679 36.88919,36.66695 1.51203,24.84315 40.22838,-38.24033 30.33833,-5.63947 -7.04322,24.3015 -26.08941,41.63796 -39.03157,62.56838 -7.54999,8.63796 -17.92212,18.85972 -11.65676,28.23909 z m -37.686,-6.029 c 8.15562,0.28531 18.91305,-13.70777 8.63463,-12.519 -6.98633,0.16129 -6.77317,7.68162 -8.63463,12.519 z m -92.705,-390.419 c 6.66571,-9.7741 12.98986,1.67349 6.59991,2.24125 7.94653,9.07593 -6.79724,-3.04174 -4.81691,11.41175 -2.32239,-0.86017 -12.5617,-22.78779 -1.783,-13.653 z m 15.828,55.774 c 1.5898,9.92753 -18.09121,16.52834 -1.508,24.119 -1.72746,10.17572 -9.72351,27.73238 -18.37155,28.04943 -11.60199,8.33536 14.19655,7.33776 18.33666,0.92368 9.54033,3.98375 7.36101,-4.25037 9.26089,-9.41311 -4.13441,-11.59926 13.94608,1.07542 3.84868,-12.63922 -10.28503,8.88061 6.5535,-9.81496 13.14937,-6.92078 -3.01479,-7.82143 -24.61551,12.44256 -20.94805,-3.769 -14.0255,-9.27229 22.267,-26.29485 -3.768,-20.35 z m 47.564,96.053 c 0.89577,5.53631 -1.53271,14.67861 -5.87355,21.57222 10.48947,12.65976 31.23272,-9.64031 47.2845,0.0159 19.64923,-12.32237 -23.19029,-30.38862 -26.84082,-10.77947 -8.18177,-6.27534 4.73115,-15.17165 -8.54352,-13.42136 -3.26993,-0.56342 -3.30753,-5.92333 -6.02661,2.61275 z m 79.058,23.033 c 13.11612,7.15241 27.23598,-6.4052 11.2923,-14.78985 -6.92764,-8.91694 -8.98062,-16.27949 -18.42629,-20.21158 -4.77582,-1.95588 10.36115,-23.12401 -5.89888,-13.39894 -11.31502,5.16987 -5.76022,20.52245 0.40385,25.29776 16.03683,9.94092 14.39575,4.27932 12.62902,23.10261 z m -161.293,27.133 c -10.75871,6.82957 -10.00351,-9.85427 -5.60939,-14.73629 -0.80275,-5.50072 8.59459,-19.78934 5.23289,-3.47271 -2.45141,5.01611 4.06232,12.18064 0.3765,18.209 z m -66.326,6.03 c 7.54694,18.19556 42.54905,-2.48582 60.989,7.35 8.87714,-3.3109 14.63052,-1.44793 11.51083,8.08477 -12.78122,4.62271 3.90845,11.35689 8.14717,10.19023 12.36123,1.67889 15.41494,12.8712 28.89005,14.26732 10.54951,3.14658 2.85361,-23.94455 21.44295,-14.97732 3.93466,6.2291 12.71532,3.08184 20.04865,4.78787 12.38419,4.193 18.87906,-10.73678 30.66686,-8.66209 4.05273,-9.27482 2.88429,-37.21748 1.3855,-33.02818 -7.16793,6.50863 -18.92301,7.03748 -28.5521,11.71462 -4.91043,-3.71032 -9.56106,4.60389 -11.15591,-8.50922 -3.36006,-7.22829 -4.01496,-20.13272 -17.504,-7.8 -3.95398,0.85402 12.46513,9.827 9.06705,14.50473 -8.27831,-5.41254 -7.46206,-1.06558 -8.98957,6.59927 -7.65783,-4.6231 -13.67364,-24.8124 -24.49339,-33.86709 -11.6404,-5.51754 -12.57522,-16.69211 -20.76309,-18.72791 -6.35434,16.76095 27.83896,28.13227 22.40236,32.99419 -13.62968,-8.34383 6.38063,15.67161 -11.64773,14.97907 0.11982,12.801 -24.53828,-8.16385 -2.74106,-2.16226 15.50308,-9.14887 -12.44225,-19.97725 -17.51218,-28.81539 -4.85783,-19.67864 -17.70522,9.80238 -27.58305,-6.56823 -1.03193,8.6918 -21.49092,15.35681 -19.48934,28.60062 -7.30052,6.85284 -13.33146,9.23601 -24.119,9.045 z m 3.015,-159.786 c 0.59221,0.16151 9.03484,-14.31398 7.914,-5.653 20.12081,2.56586 -1.07825,21.69373 -11.682,8.668 1.256,-1.005 2.512,-2.01 3.768,-3.015 z"
       id="path16"
       style="fill:#E54E27;stroke:none" />
  </g>
  <g
     transform="translate(-42.251598,-150.36105)"
     id="g18" />
</svg>
