<?xml version="1.0" encoding="utf-8"?>
<!-- Generator: Adobe Illustrator 19.0.0, SVG Export Plug-In . SVG Version: 6.00 Build 0)  -->
<svg version="1.1" id="Layer_1" xmlns="http://www.w3.org/2000/svg" xmlns:xlink="http://www.w3.org/1999/xlink" x="0px" y="0px"
	 viewBox="-469 151 500 500" style="enable-background:new -469 151 500 500;" xml:space="preserve">
<style type="text/css">
	.st0{fill:#DF5A49;}
	.st1{fill:#EFC94C;}
	.st2{fill:#45B29D;}
</style>
<path class="st0" d="M-379,231c0-22.1,17.9-40,40-40s40,17.9,40,40v140c0,22.1-17.9,40-40,40s-40-17.9-40-40"/>
<path class="st1" d="M-259,231c0-22.1,17.9-40,40-40s40,17.9,40,40v240c0,22.1-17.9,40-40,40s-40-17.9-40-40"/>
<path class="st2" d="M-139,231c0-22.1,17.9-40,40-40s40,17.9,40,40v340c0,22.1-17.9,40-40,40s-40-17.9-40-40"/>
</svg>
