<?xml version="1.0" encoding="utf-8"?>
<!-- Generator: Adobe Illustrator 19.0.0, SVG Export Plug-In . SVG Version: 6.00 Build 0)  -->
<svg version="1.1" id="Layer_1" xmlns="http://www.w3.org/2000/svg" xmlns:xlink="http://www.w3.org/1999/xlink" x="0px" y="0px"
	 viewBox="207 101 2200 600" style="enable-background:new 207 101 2200 600;" xml:space="preserve">
<style type="text/css">
	.st0{fill:#DF5A49;}
	.st1{fill:#EFC94C;}
	.st2{fill:#45B29D;}
	.st3{enable-background:new    ;}
	.st4{fill:#455164;}
	.st5{fill:#8D9AA5;}
	.st6{fill:#005A9C;}
</style>
<g>
	<title>Mobile Checker</title>
	<path class="st0" d="M386.4,212.6c0-22.1,17.9-40,40-40s40,17.9,40,40v140c0,22.1-17.9,40-40,40s-40-17.9-40-40"/>
	<path class="st1" d="M506.4,212.6c0-22.1,17.9-40,40-40s40,17.9,40,40v240c0,22.1-17.9,40-40,40s-40-17.9-40-40"/>
	<path class="st2" d="M626.4,212.6c0-22.1,17.9-40,40-40s40,17.9,40,40v340c0,22.1-17.9,40-40,40s-40-17.9-40-40"/>
	<g class="st3">
		<path class="st4" d="M810.1,366.2c8.9,0,16.9,1.5,23.9,4.6c7,3,13,7.4,17.8,12.9c4.8,5.6,8.5,12.3,11.1,20.2
			c2.5,7.9,3.8,16.7,3.8,26.4s-1.3,18.5-3.8,26.4c-2.5,7.8-6.2,14.5-11.1,20.1c-4.8,5.6-10.8,9.9-17.8,12.9c-7,3-15,4.5-23.9,4.5
			c-8.9,0-16.9-1.5-23.9-4.5c-7-3-13-7.3-17.9-12.9c-4.9-5.6-8.6-12.3-11.1-20.1c-2.5-7.8-3.8-16.6-3.8-26.4s1.3-18.6,3.8-26.4
			c2.5-7.9,6.2-14.6,11.1-20.2c4.9-5.6,10.8-9.9,17.9-12.9C793.2,367.7,801.1,366.2,810.1,366.2z M810.1,484.8
			c7.4,0,13.9-1.3,19.4-3.8c5.5-2.5,10.2-6.2,13.9-10.9c3.7-4.8,6.5-10.5,8.3-17.2c1.8-6.7,2.8-14.2,2.8-22.6
			c0-8.2-0.9-15.8-2.8-22.5c-1.8-6.8-4.6-12.5-8.3-17.3c-3.7-4.8-8.3-8.5-13.9-11.1c-5.5-2.6-12-3.9-19.4-3.9
			c-7.4,0-13.9,1.3-19.4,3.9c-5.5,2.6-10.2,6.3-13.9,11.1c-3.7,4.8-6.5,10.6-8.4,17.3s-2.8,14.2-2.8,22.5c0,8.3,0.9,15.9,2.8,22.6
			c1.9,6.7,4.7,12.4,8.4,17.2c3.7,4.8,8.3,8.4,13.9,10.9C796.2,483.6,802.6,484.8,810.1,484.8z"/>
		<path class="st4" d="M899.2,492.6V310.7h11.9l0.1,79.2c5.5-7.3,11.9-13.1,19.1-17.4s15.4-6.4,24.5-6.4c15.2,0,27.1,5.3,35.7,15.8
			c8.5,10.5,12.8,26.4,12.8,47.6c0,9.1-1.2,17.6-3.6,25.4s-5.9,14.7-10.5,20.5c-4.6,5.8-10.3,10.4-17,13.7c-6.7,3.3-14.5,5-23.2,5
			c-8.7,0-16.1-1.7-22.4-5.1s-11.6-8.4-16.1-14.9l-0.7,15.2c-0.2,2.1-1.4,3.1-3.3,3.1H899.2z M951.4,375.7c-8.3,0-15.7,2.1-22.4,6.4
			c-6.7,4.2-12.6,10.2-17.9,17.8v65.6c4.8,7.2,10,12.2,15.8,15.1c5.8,2.9,12.4,4.3,19.9,4.3c7.3,0,13.8-1.3,19.3-4
			c5.5-2.7,10.1-6.4,13.8-11.3c3.7-4.9,6.5-10.7,8.4-17.5c1.9-6.8,2.8-14.3,2.8-22.4c0-18.5-3.4-32.1-10.3-40.8
			C973.9,380.1,964.1,375.7,951.4,375.7z"/>
		<path class="st4" d="M1055.1,325.3c0,1.5-0.3,2.9-0.9,4.2c-0.6,1.3-1.4,2.4-2.4,3.4s-2.2,1.8-3.5,2.4c-1.3,0.6-2.8,0.9-4.2,0.9
			s-2.9-0.3-4.2-0.9c-1.3-0.6-2.5-1.4-3.5-2.4s-1.8-2.1-2.4-3.4c-0.6-1.3-0.9-2.7-0.9-4.2s0.3-2.9,0.9-4.3c0.6-1.4,1.4-2.6,2.4-3.6
			s2.2-1.8,3.5-2.4c1.3-0.6,2.8-0.9,4.2-0.9s2.9,0.3,4.2,0.9c1.3,0.6,2.5,1.4,3.5,2.4s1.8,2.2,2.4,3.6S1055.1,323.8,1055.1,325.3z
			 M1049.8,368.2v124.4h-11.9V368.2H1049.8z"/>
		<path class="st4" d="M1109.2,310.7v181.9h-11.9V310.7H1109.2z"/>
		<path class="st4" d="M1200,366.2c7,0,13.5,1.2,19.4,3.6c6,2.4,11.1,5.9,15.5,10.6s7.8,10.3,10.2,17.1c2.5,6.8,3.7,14.5,3.7,23.2
			c0,1.8-0.3,3.1-0.8,3.8c-0.5,0.7-1.4,1-2.6,1h-89.8v2.4c0,9.3,1.1,17.5,3.2,24.6c2.2,7.1,5.2,13,9.2,17.8c4,4.8,8.8,8.4,14.5,10.8
			c5.7,2.4,12,3.6,19,3.6c6.2,0,11.7-0.7,16.2-2.1c4.6-1.4,8.4-2.9,11.6-4.6c3.1-1.7,5.6-3.2,7.4-4.6c1.8-1.4,3.2-2.1,4-2.1
			c1.1,0,1.9,0.4,2.5,1.2l3.2,4c-2,2.5-4.6,4.8-7.9,7c-3.3,2.2-7,4-11,5.6c-4,1.5-8.4,2.8-13,3.7s-9.3,1.4-13.9,1.4
			c-8.5,0-16.2-1.5-23.2-4.4s-13-7.3-18-12.9c-5-5.7-8.9-12.6-11.6-20.8c-2.7-8.2-4.1-17.6-4.1-28.2c0-8.9,1.3-17.1,3.8-24.7
			c2.5-7.5,6.2-14,11-19.5c4.8-5.5,10.7-9.7,17.6-12.8C1183.3,367.8,1191.2,366.2,1200,366.2z M1200.2,375.1c-6.4,0-12.2,1-17.2,3
			c-5.1,2-9.5,4.9-13.2,8.6s-6.7,8.2-9,13.5s-3.8,11.1-4.6,17.6h81.9c0-6.7-0.9-12.6-2.7-17.9c-1.8-5.3-4.4-9.8-7.7-13.4
			c-3.3-3.7-7.3-6.5-12-8.4C1211,376.1,1205.9,375.1,1200.2,375.1z"/>
	</g>
	<g class="st3">
		<path class="st5" d="M1494.8,462.8c0.8,0,1.5,0.3,2.1,0.9l5,5.4c-3.7,3.9-7.7,7.4-12,10.6c-4.3,3.1-9.1,5.8-14.2,8
			c-5.1,2.2-10.8,3.9-16.9,5.1s-12.9,1.8-20.2,1.8c-12.2,0-23.5-2.1-33.7-6.4c-10.2-4.3-19-10.4-26.2-18.2
			c-7.3-7.9-13-17.4-17.1-28.6c-4.1-11.2-6.1-23.6-6.1-37.2c0-13.4,2.1-25.7,6.3-36.8c4.2-11.1,10.1-20.6,17.8-28.6
			c7.6-8,16.8-14.1,27.4-18.5s22.4-6.6,35.2-6.6c6.4,0,12.3,0.5,17.6,1.4c5.3,1,10.3,2.3,14.9,4.1c4.6,1.8,9,4,13.1,6.7
			c4.1,2.7,8.1,5.8,12,9.2l-3.9,5.6c-0.7,1-1.7,1.5-3.1,1.5c-0.8,0-1.7-0.4-2.9-1.3c-1.2-0.9-2.6-2-4.4-3.2c-1.8-1.3-4-2.7-6.5-4.2
			c-2.5-1.5-5.6-3-9.1-4.2c-3.5-1.3-7.5-2.4-12.1-3.2c-4.6-0.9-9.8-1.3-15.6-1.3c-10.8,0-20.6,1.9-29.6,5.6c-9,3.7-16.8,9-23.2,15.9
			s-11.6,15.2-15.2,25c-3.6,9.8-5.4,20.8-5.4,32.9c0,12.5,1.8,23.7,5.4,33.5c3.6,9.8,8.5,18.1,14.9,24.9c6.3,6.8,13.8,12,22.4,15.6
			s18,5.4,28.1,5.4c6.3,0,12-0.4,16.9-1.2c5-0.8,9.5-2.1,13.7-3.8c4.2-1.7,8-3.7,11.6-6.1c3.6-2.4,7.1-5.2,10.6-8.5
			c0.4-0.3,0.8-0.6,1.2-0.8C1493.9,462.9,1494.3,462.8,1494.8,462.8z"/>
		<path class="st5" d="M1536.2,492.6V310.7h11.9v78.8c5.8-7.1,12.3-12.7,19.7-16.9c7.4-4.2,15.6-6.3,24.8-6.3
			c6.8,0,12.9,1.1,18.1,3.2c5.2,2.2,9.5,5.3,12.9,9.4c3.4,4.1,6,9,7.8,14.8s2.6,12.2,2.6,19.5v79.5h-11.9v-79.5
			c0-11.7-2.7-20.8-8-27.4c-5.3-6.6-13.5-9.9-24.5-9.9c-8.2,0-15.8,2.1-22.8,6.3c-7,4.2-13.2,10-18.8,17.3v93.2H1536.2z"/>
		<path class="st5" d="M1718.3,366.2c7,0,13.5,1.2,19.4,3.6c6,2.4,11.1,5.9,15.5,10.6s7.8,10.3,10.2,17.1c2.5,6.8,3.7,14.5,3.7,23.2
			c0,1.8-0.3,3.1-0.8,3.8c-0.5,0.7-1.4,1-2.6,1h-89.8v2.4c0,9.3,1.1,17.5,3.2,24.6c2.2,7.1,5.2,13,9.2,17.8c4,4.8,8.8,8.4,14.5,10.8
			c5.7,2.4,12,3.6,19,3.6c6.2,0,11.7-0.7,16.2-2.1c4.6-1.4,8.4-2.9,11.6-4.6c3.1-1.7,5.6-3.2,7.4-4.6c1.8-1.4,3.2-2.1,4-2.1
			c1.1,0,1.9,0.4,2.5,1.2l3.2,4c-2,2.5-4.6,4.8-7.9,7c-3.3,2.2-7,4-11,5.6c-4,1.5-8.4,2.8-13,3.7s-9.3,1.4-13.9,1.4
			c-8.5,0-16.2-1.5-23.2-4.4s-13-7.3-18-12.9c-5-5.7-8.9-12.6-11.6-20.8c-2.7-8.2-4.1-17.6-4.1-28.2c0-8.9,1.3-17.1,3.8-24.7
			c2.5-7.5,6.2-14,11-19.5c4.8-5.5,10.7-9.7,17.6-12.8C1701.6,367.8,1709.5,366.2,1718.3,366.2z M1718.5,375.1c-6.4,0-12.2,1-17.2,3
			c-5.1,2-9.5,4.9-13.2,8.6s-6.7,8.2-9,13.5s-3.8,11.1-4.6,17.6h81.9c0-6.7-0.9-12.6-2.7-17.9c-1.8-5.3-4.4-9.8-7.7-13.4
			c-3.3-3.7-7.3-6.5-12-8.4C1729.3,376.1,1724.2,375.1,1718.5,375.1z"/>
		<path class="st5" d="M1881.1,384.8c-0.4,0.4-0.8,0.8-1.2,1.1c-0.4,0.3-0.9,0.4-1.6,0.4c-0.8,0-2-0.6-3.4-1.7
			c-1.5-1.1-3.4-2.4-5.8-3.7c-2.4-1.3-5.4-2.6-9.1-3.7s-8-1.7-13.2-1.7c-7.2,0-13.5,1.3-19.1,3.8c-5.5,2.5-10.2,6.2-14,10.9
			c-3.8,4.8-6.7,10.5-8.7,17.2s-3,14.3-3,22.8c0,8.8,1,16.5,3.1,23.2c2,6.8,4.9,12.4,8.7,17.1s8.3,8.1,13.6,10.6
			c5.3,2.4,11.2,3.6,17.8,3.6c6,0,11-0.7,15.1-2.1c4-1.4,7.4-3,10-4.6c2.6-1.7,4.7-3.2,6.2-4.6c1.5-1.4,2.8-2.1,3.7-2.1
			c1.1,0,1.9,0.4,2.5,1.2l3.2,4c-1.9,2.5-4.3,4.8-7.2,7c-2.9,2.2-6.2,4-9.9,5.6c-3.7,1.6-7.6,2.8-11.9,3.7
			c-4.3,0.9-8.8,1.3-13.4,1.3c-7.9,0-15.1-1.4-21.7-4.3c-6.5-2.9-12.2-7-16.9-12.5c-4.7-5.5-8.4-12.1-11-20.1
			c-2.6-7.9-3.9-16.9-3.9-27c0-9.5,1.2-18.2,3.8-26c2.5-7.8,6.1-14.6,10.9-20.2c4.8-5.7,10.7-10.1,17.6-13.2
			c7-3.1,14.9-4.7,23.9-4.7c8.1,0,15.3,1.3,21.6,3.9c6.3,2.6,11.8,6.1,16.4,10.5L1881.1,384.8z"/>
		<path class="st5" d="M1926.1,310.7v110.9h5.8c1.2,0,2.3-0.2,3.3-0.5c1-0.3,2.2-1.1,3.4-2.4l49.9-47.4c0.9-0.9,1.9-1.7,2.8-2.2
			c1-0.6,2.2-0.9,3.7-0.9h10.5l-54.9,52.1c-0.8,0.8-1.6,1.6-2.4,2.3c-0.8,0.7-1.6,1.3-2.5,1.8c1.3,0.7,2.5,1.5,3.4,2.4
			c0.9,0.9,1.9,1.9,2.9,3l57.6,62.8h-10.4c-1.2,0-2.2-0.2-3.1-0.7c-0.9-0.5-1.8-1.2-2.8-2.2l-52.2-56c-1.4-1.5-2.7-2.5-3.9-3.1
			c-1.2-0.5-3-0.8-5.5-0.8h-5.6v62.8h-11.9V310.7H1926.1z"/>
		<path class="st5" d="M2075.3,366.2c7,0,13.5,1.2,19.4,3.6c6,2.4,11.1,5.9,15.5,10.6s7.8,10.3,10.2,17.1c2.5,6.8,3.7,14.5,3.7,23.2
			c0,1.8-0.3,3.1-0.8,3.8c-0.5,0.7-1.4,1-2.6,1h-89.8v2.4c0,9.3,1.1,17.5,3.2,24.6c2.2,7.1,5.2,13,9.2,17.8c4,4.8,8.8,8.4,14.5,10.8
			c5.7,2.4,12,3.6,19,3.6c6.2,0,11.7-0.7,16.2-2.1c4.6-1.4,8.4-2.9,11.6-4.6c3.1-1.7,5.6-3.2,7.4-4.6c1.8-1.4,3.2-2.1,4-2.1
			c1.1,0,1.9,0.4,2.5,1.2l3.2,4c-2,2.5-4.6,4.8-7.9,7c-3.3,2.2-7,4-11,5.6c-4,1.5-8.4,2.8-13,3.7s-9.3,1.4-13.9,1.4
			c-8.5,0-16.2-1.5-23.2-4.4c-7-3-13-7.3-18-12.9c-5-5.7-8.9-12.6-11.6-20.8c-2.7-8.2-4.1-17.6-4.1-28.2c0-8.9,1.3-17.1,3.8-24.7
			c2.5-7.5,6.2-14,11-19.5c4.8-5.5,10.7-9.7,17.6-12.8C2058.6,367.8,2066.5,366.2,2075.3,366.2z M2075.5,375.1c-6.4,0-12.2,1-17.2,3
			c-5.1,2-9.5,4.9-13.2,8.6c-3.7,3.8-6.7,8.2-9,13.5s-3.8,11.1-4.6,17.6h81.9c0-6.7-0.9-12.6-2.7-17.9c-1.8-5.3-4.4-9.8-7.7-13.4
			c-3.3-3.7-7.3-6.5-12-8.4C2086.3,376.1,2081.2,375.1,2075.5,375.1z"/>
		<path class="st5" d="M2156.2,492.6V368.2h6.2c1.4,0,2.4,0.3,3.1,0.9c0.6,0.6,1,1.6,1.1,3l1,26.2c4-10.1,9.3-18,16-23.7
			c6.7-5.7,14.9-8.6,24.6-8.6c3.8,0,7.2,0.4,10.4,1.2c3.2,0.8,6.2,1.9,9,3.4l-1.6,8.2c-0.2,1.3-1.1,2-2.5,2c-0.5,0-1.2-0.2-2.1-0.5
			c-0.9-0.3-2.1-0.7-3.4-1.1c-1.4-0.4-3.1-0.8-5.1-1.1c-2-0.3-4.3-0.5-6.9-0.5c-9.4,0-17.1,2.9-23.2,8.8c-6,5.8-10.9,14.2-14.7,25.2
			v80.9H2156.2z"/>
	</g>
</g>
<g class="st3">
	<path class="st4" d="M1918.2,612.6h-6.5v-57.3h7v20.4c3-3.7,6.8-5.6,11.4-5.6c2.6,0,5,0.5,7.2,1.5c2.3,1,4.2,2.5,5.6,4.3
		c1.5,1.9,2.6,4.1,3.5,6.7c0.8,2.6,1.2,5.4,1.2,8.4c0,7.1-1.8,12.6-5.3,16.5c-3.5,3.9-7.7,5.8-12.7,5.8c-4.9,0-8.7-2-11.5-6.1V612.6
		z M1918.1,591.5c0,5,0.7,8.6,2,10.8c2.2,3.6,5.2,5.4,9,5.4c3.1,0,5.7-1.3,8-4c2.2-2.7,3.4-6.6,3.4-11.9c0-5.4-1.1-9.4-3.2-12
		s-4.7-3.9-7.8-3.9c-3.1,0-5.7,1.3-8,4C1919.2,582.6,1918.1,586.5,1918.1,591.5z"/>
	<path class="st4" d="M1955.9,628.6l-0.8-6.6c1.5,0.4,2.9,0.6,4,0.6c1.6,0,2.8-0.3,3.8-0.8c0.9-0.5,1.7-1.2,2.3-2.2
		c0.4-0.7,1.2-2.4,2.1-5.2c0.1-0.4,0.3-1,0.6-1.7l-15.7-41.6h7.6l8.6,24c1.1,3,2.1,6.2,3,9.6c0.8-3.2,1.8-6.4,2.9-9.5l8.9-24.2h7
		l-15.8,42.2c-1.7,4.6-3,7.7-3.9,9.4c-1.2,2.3-2.7,4-4.3,5.1c-1.6,1.1-3.5,1.6-5.8,1.6C1959.1,629.4,1957.6,629.1,1955.9,628.6z"/>
</g>
<a xlink:href="http://www.w3.org/" >
	
		<g transform="translate(1620,320) scale(3)" image-rendering="optimizeQuality" shape-rendering="geometricPrecision" text-rendering="geometricPrecision">
		<title>W3C</title>
		<g image-rendering="optimizeQuality" shape-rendering="geometricPrecision" text-rendering="geometricPrecision">
			<g id="Foreground">
				<g>
					<path class="st6" d="M146.9,65.5l5.8,19.6l5.8-19.6h4.2h11.4v1.9l-5.9,10.1c2.1,0.7,3.6,1.9,4.7,3.6c1.1,1.7,1.6,3.8,1.6,6.2
						c0,2.9-0.8,5.4-2.3,7.3s-3.6,3-6,3c-1.9,0-3.5-0.6-4.8-1.8c-1.4-1.2-2.4-2.8-3.1-4.8l3.3-1.3c0.5,1.2,1.1,2.2,1.9,2.9
						c0.8,0.7,1.7,1.1,2.8,1.1c1.1,0,2.1-0.6,2.8-1.9c0.8-1.2,1.2-2.7,1.2-4.5c0-1.9-0.4-3.4-1.2-4.5c-1-1.2-2.4-1.9-4.5-1.9h-1.6
						v-1.9l5.6-9.6h-6.7l-0.4,0.7l-8.2,27.5h-0.4l-6-19.9l-6,19.9h-0.4l-9.5-32.2h4.2l5.8,19.6l3.9-13.2l-1.9-6.4
						C142.8,65.5,146.9,65.5,146.9,65.5z"/>
				</g>
				<path d="M195.7,65.5c-0.8,0-1.6,0.3-2.1,0.9c-0.6,0.6-0.9,1.4-0.9,2.2s0.3,1.5,0.9,2.1c0.6,0.6,1.3,0.9,2.1,0.9
					c0.8,0,1.6-0.3,2.2-0.9c0.6-0.6,0.9-1.3,0.9-2.1c0-0.8-0.3-1.6-0.9-2.1C197.3,65.8,196.6,65.5,195.7,65.5z M198.4,68.6
					c0,0.7-0.3,1.4-0.8,1.8c-0.5,0.5-1.2,0.8-1.9,0.8c-0.7,0-1.3-0.3-1.8-0.8c-0.5-0.5-0.8-1.2-0.8-1.8c0-0.7,0.3-1.4,0.8-1.9
					c0.5-0.5,1.1-0.8,1.8-0.8c0.7,0,1.4,0.3,1.9,0.8C198.1,67.2,198.4,67.9,198.4,68.6z M195.8,66.8h-1.3v3.4h0.6v-1.5h0.6l0.7,1.5
					h0.7l-0.8-1.6c0.5-0.1,0.8-0.4,0.8-0.9C197.2,67.1,196.8,66.8,195.8,66.8z M195.7,67.2c0.6,0,0.9,0.2,0.9,0.6
					c0,0.4-0.3,0.5-0.9,0.5h-0.5v-1.1C195.2,67.2,195.7,67.2,195.7,67.2z"/>
			</g>
			<g id="Calque_1">
				<g>
					<path d="M190.6,65.4l0.7,4.1l-2.4,4.6c0,0-0.9-1.9-2.4-3c-1.3-0.9-2.1-1.1-3.4-0.8c-1.7,0.3-3.6,2.4-4.4,4.8c-1,3-1,4.4-1,5.7
						c-0.1,2.1,0.3,3.4,0.3,3.4s-1.5-2.7-1.4-6.6c0-2.8,0.5-5.4,1.8-7.9c1.1-2.2,2.8-3.5,4.4-3.7c1.6-0.2,2.8,0.6,3.7,1.4
						c1,0.9,2,2.7,2,2.7L190.6,65.4z"/>
					<path d="M190.9,88.6c0,0-1.1,1.9-1.7,2.6c-0.7,0.7-1.8,2-3.3,2.7c-1.5,0.6-2.2,0.8-3.7,0.6c-1.4-0.1-2.8-1-3.2-1.3
						s-1.7-1.4-2.3-2.3c-0.7-1-1.7-2.9-1.7-2.9s0.6,1.9,1,2.7c0.2,0.5,0.9,1.9,1.8,3.1c0.9,1.2,2.5,3.2,5.1,3.6
						c2.5,0.5,4.3-0.7,4.7-1s1.3-1,1.9-1.7c0.6-0.6,1.2-1.5,1.5-2c0.2-0.4,0.6-1.1,0.6-1.1L190.9,88.6z"/>
				</g>
			</g>
		</g>
	</g>
</a>
</svg>
