<?xml version="1.0" encoding="UTF-8" standalone="no"?>
<svg
   xmlns:xhtml="http://www.w3.org/1999/xhtml"
   xmlns:dc="http://purl.org/dc/elements/1.1/"
   xmlns:cc="http://creativecommons.org/ns#"
   xmlns:rdf="http://www.w3.org/1999/02/22-rdf-syntax-ns#"
   xmlns:svg="http://www.w3.org/2000/svg"
   xmlns="http://www.w3.org/2000/svg"
   xmlns:sodipodi="http://sodipodi.sourceforge.net/DTD/sodipodi-0.dtd"
   xmlns:inkscape="http://www.inkscape.org/namespaces/inkscape"
   version="1.1"
   id="Capa_1"
   x="0px"
   y="0px"
   width="321.94846"
   height="665.16266"
   viewBox="0 0 321.94846 665.16266"
   xml:space="preserve"
   inkscape:version="0.48.4 r9939"
   sodipodi:docname="smartphone.svg"><metadata
     id="metadata9"><rdf:RDF><cc:Work
         rdf:about=""><dc:description><xhtml:div>Original icon made by <xhtml:a
   href="http://www.freepik.com"
   alt="Freepik.com"
   title="Freepik.com">Freepik</xhtml:a> from <xhtml:a
   href="http://www.flaticon.com/free-icon/smartphone-from-the-front_488"
   title="Flaticon">www.flaticon.com</xhtml:a></xhtml:div></dc:description><dc:format>image/svg+xml</dc:format><dc:type
           rdf:resource="http://purl.org/dc/dcmitype/StillImage" /></cc:Work></rdf:RDF></metadata><defs
     id="defs7" /><sodipodi:namedview
     pagecolor="#ffffff"
     bordercolor="#000000"
     borderopacity="1"
     objecttolerance="10"
     gridtolerance="10"
     guidetolerance="10"
     inkscape:pageopacity="0"
     inkscape:pageshadow="2"
     inkscape:window-width="815"
     inkscape:window-height="884"
     id="namedview5"
     showgrid="false"
     inkscape:zoom="0.93103994"
     inkscape:cx="209.94601"
     inkscape:cy="311.16465"
     inkscape:window-x="682"
     inkscape:window-y="189"
     inkscape:window-maximized="0"
     inkscape:current-layer="Capa_1"
     fit-margin-top="0"
     fit-margin-left="0"
     fit-margin-right="0"
     fit-margin-bottom="0" /><path
     d="M 280.2333,0.0419359 C 199.30948,0.20831391 118.37136,-0.29106316 37.456539,0.29203911 12.72443,2.326612 -2.8472661,31.907303 0.43522806,59.167415 0.57668578,246.51558 0.15215212,433.88045 0.6477769,621.21817 c 1.7294389,28.95886 26.8982161,47.29377 50.1533531,43.4329 77.88137,-0.16565 155.77709,0.33289 233.64949,-0.25004 24.69957,-2.04447 40.35241,-31.54685 37.0626,-58.81247 C 321.37006,418.23566 321.8013,230.86542 321.29689,43.523299 319.57605,19.463286 300.85428,-0.43488174 280.2333,0.0419359 z M 294.57564,538.52529 c -86.40095,0 -180.80189,0 -267.202838,0 0,-152.26122 0,-304.52248 0,-456.783733 86.400948,0 180.801888,0 267.202838,0 0,152.261253 0,304.522513 0,456.783733 z M 216.26462,49.187562 c -36.86622,0 -73.73246,0 -110.5987,0 -2.24417,-11.925952 1.3269,-17.034975 11.72799,-14.137494 32.96287,0 65.92574,0 98.88861,0 -0.0121,4.704787 0.025,9.46788 -0.0179,14.137494 z m 47.32787,-6.46046 c -4.34672,31.422572 -37.41057,-7.300636 -10.57495,-12.375551 5.65885,-0.177663 10.71123,5.745178 10.57495,12.375551 z M 211.30817,613.05131 c -33.57386,0 -67.14772,0 -100.72158,0 0,-12.10988 0,-24.21973 0,-36.32959 33.57386,0 67.14772,0 100.72158,0 0,12.10986 0,24.21971 0,36.32959 z"
     id="path3"
     inkscape:connector-curvature="0"
     style="fill:#efc94c;fill-opacity:1"
     sodipodi:nodetypes="ccccccccccccccccccccccccccc" /></svg>