<?xml version="1.0" encoding="UTF-8" standalone="no"?>
<svg
   xmlns:dc="http://purl.org/dc/elements/1.1/"
   xmlns:cc="http://creativecommons.org/ns#"
   xmlns:rdf="http://www.w3.org/1999/02/22-rdf-syntax-ns#"
   xmlns:svg="http://www.w3.org/2000/svg"
   xmlns="http://www.w3.org/2000/svg"
   xmlns:sodipodi="http://sodipodi.sourceforge.net/DTD/sodipodi-0.dtd"
   xmlns:inkscape="http://www.inkscape.org/namespaces/inkscape"
   version="1.1"
   id="Capa_1"
   x="0px"
   y="0px"
   width="320px"
   height="660px"
   viewBox="0 0 320 660"
   xml:space="preserve"
   inkscape:version="0.48.4 r9939"
   sodipodi:docname="smartphone.svg"><metadata
     id="metadata9"><rdf:RDF><cc:Work
         rdf:about=""><dc:description><div xmlns="http://www.w3.org/1999/xhtml">Original icon made by <a href="http://www.freepik.com" alt="Freepik.com" title="Freepik.com">Freepik</a> from <a href="http://www.flaticon.com/free-icon/smartphone-from-the-front_488" title="Flaticon">www.flaticon.com</a></div></dc:description><dc:format>image/svg+xml</dc:format><dc:type
           rdf:resource="http://purl.org/dc/dcmitype/StillImage" /></cc:Work></rdf:RDF></metadata><defs
     id="defs7" /><sodipodi:namedview
     pagecolor="#ffffff"
     bordercolor="#666666"
     borderopacity="1"
     objecttolerance="10"
     gridtolerance="10"
     guidetolerance="10"
     inkscape:pageopacity="0"
     inkscape:pageshadow="2"
     inkscape:window-width="815"
     inkscape:window-height="884"
     id="namedview5"
     showgrid="false"
     inkscape:zoom="0.93103994"
     inkscape:cx="209.92169"
     inkscape:cy="306.00401"
     inkscape:window-x="682"
     inkscape:window-y="189"
     inkscape:window-maximized="0"
     inkscape:current-layer="Capa_1" /><path
     d="M 280.20898,0.03722799 C 199.28516,0.19285968 118.34704,-0.27426273 37.432216,0.27117709 12.700107,2.1743373 -2.8715896,29.844418 0.41090458,55.343805 0.5523623,230.59119 0.12782864,405.85421 0.62345342,581.09182 2.3528923,608.18023 27.52167,625.3309 50.776807,621.7194 128.65818,621.56445 206.5539,622.03079 284.4263,621.48551 309.12587,619.57309 324.77871,591.97626 321.4889,566.47173 321.34574,391.21991 321.77698,215.95187 321.27257,40.71014 319.55173,18.204157 300.82996,-0.40879211 280.20898,0.03722799 z M 294.55132,503.74006 c -86.40095,0 -180.80189,0 -267.202841,0 0,-142.42671 0,-284.85344 0,-427.280171 86.400951,0 180.801891,0 267.202841,0 0,142.426731 0,284.853461 0,427.280171 z M 216.2403,46.008549 c -36.86622,0 -73.73246,0 -110.5987,0 -2.24417,-11.155658 1.3269,-15.934689 11.72799,-13.224357 32.96287,0 65.92574,0 98.88861,0 -0.0121,4.400907 0.025,8.856352 -0.0179,13.224357 z m 47.32787,-6.04318 c -4.34672,29.392994 -37.41057,-6.829089 -10.57495,-11.576217 5.65885,-0.166188 10.71123,5.374098 10.57495,11.576217 z M 211.28385,573.45246 c -33.57386,0 -67.14772,0 -100.72158,0 0,-11.3277 0,-22.65539 0,-33.98307 33.57386,0 67.14772,0 100.72158,0 0,11.32768 0,22.65537 0,33.98307 z"
     id="path3"
     inkscape:connector-curvature="0"
     style="fill:#1abc9c;fill-opacity:1"
     sodipodi:nodetypes="ccccccccccccccccccccccccccc" /></svg>