<?xml version="1.0" encoding="UTF-8" standalone="no"?>
<svg
   xmlns:xhtml="http://www.w3.org/1999/xhtml"
   xmlns:dc="http://purl.org/dc/elements/1.1/"
   xmlns:cc="http://creativecommons.org/ns#"
   xmlns:rdf="http://www.w3.org/1999/02/22-rdf-syntax-ns#"
   xmlns:svg="http://www.w3.org/2000/svg"
   xmlns="http://www.w3.org/2000/svg"
   xmlns:sodipodi="http://sodipodi.sourceforge.net/DTD/sodipodi-0.dtd"
   xmlns:inkscape="http://www.inkscape.org/namespaces/inkscape"
   version="1.1"
   id="Capa_1"
   x="0px"
   y="0px"
   width="321.94843"
   height="665"
   viewBox="0 0 321.94843 665"
   xml:space="preserve"
   inkscape:version="0.48.4 r9939"
   sodipodi:docname="smartphone2.svg"><metadata
     id="metadata9"><rdf:RDF><cc:Work
         rdf:about=""><dc:description><xhtml:div>Original icon made by <xhtml:a
   href="http://www.freepik.com"
   alt="Freepik.com"
   title="Freepik.com">Freepik</xhtml:a> from <xhtml:a
   href="http://www.flaticon.com/free-icon/smartphone-from-the-front_488"
   title="Flaticon">www.flaticon.com</xhtml:a></xhtml:div></dc:description><dc:format>image/svg+xml</dc:format><dc:type
           rdf:resource="http://purl.org/dc/dcmitype/StillImage" /></cc:Work></rdf:RDF></metadata><defs
     id="defs7" /><sodipodi:namedview
     pagecolor="#ffffff"
     bordercolor="#666666"
     borderopacity="1"
     objecttolerance="10"
     gridtolerance="10"
     guidetolerance="10"
     inkscape:pageopacity="0"
     inkscape:pageshadow="2"
     inkscape:window-width="1221"
     inkscape:window-height="884"
     id="namedview5"
     showgrid="false"
     inkscape:zoom="0.93103994"
     inkscape:cx="-19.904495"
     inkscape:cy="276.79447"
     inkscape:window-x="276"
     inkscape:window-y="266"
     inkscape:window-maximized="0"
     inkscape:current-layer="Capa_1"
     fit-margin-top="0"
     fit-margin-left="0"
     fit-margin-right="0"
     fit-margin-bottom="0" /><path
     d="M 280.2333,0.57730797 C 199.30948,0.72299897 118.37136,0.28571197 37.456539,0.79631397 12.72443,2.577918 -2.8472661,28.48068 0.43522807,52.3514 0.57668579,216.40557 0.15215213,380.47436 0.64777691,544.51939 2.3772158,569.87765 27.545993,585.93288 50.80113,582.55206 c 77.88137,-0.14507 155.77709,0.29149 233.64949,-0.21897 24.69957,-1.79026 40.35241,-27.62446 37.0626,-51.50001 C 321.37006,366.77478 321.8013,202.70128 321.29689,38.6524 319.57605,17.583897 300.85428,0.15977497 280.2333,0.57730797 z M 294.57564,472.10816 c -86.40095,0 -180.80189,0 -267.202838,0 0,-133.32977 0,-266.65957 0,-399.98938 86.400948,0 180.801888,0 267.202838,0 0,133.32981 0,266.65961 0,399.98938 z M 216.26462,43.61239 c -36.86622,0 -73.73246,0 -110.5987,0 -2.24417,-10.44313 1.3269,-14.91692 11.72799,-12.3797 32.96287,0 65.92574,0 98.88861,0 -0.0121,4.11982 0.025,8.29069 -0.0179,12.3797 z m 47.32787,-5.65719 c -4.34672,27.51564 -37.41057,-6.39291 -10.57495,-10.83683 5.65885,-0.15558 10.71123,5.03085 10.57495,10.83683 z m -52.28432,499.41277 c -33.57386,0 -67.14772,0 -100.72158,0 0,-10.6042 0,-21.20837 0,-31.81256 33.57386,0 67.14772,0 100.72158,0 0,10.60419 0,21.20836 0,31.81256 z"
     id="path3"
     inkscape:connector-curvature="0"
     style="fill:#df5a49;fill-opacity:1"
     sodipodi:nodetypes="ccccccccccccccccccccccccccc" /></svg>