<?xml version="1.0" encoding="UTF-8" standalone="no"?>
<svg
   xmlns:xhtml="http://www.w3.org/1999/xhtml"
   xmlns:dc="http://purl.org/dc/elements/1.1/"
   xmlns:cc="http://creativecommons.org/ns#"
   xmlns:rdf="http://www.w3.org/1999/02/22-rdf-syntax-ns#"
   xmlns:svg="http://www.w3.org/2000/svg"
   xmlns="http://www.w3.org/2000/svg"
   xmlns:sodipodi="http://sodipodi.sourceforge.net/DTD/sodipodi-0.dtd"
   xmlns:inkscape="http://www.inkscape.org/namespaces/inkscape"
   version="1.1"
   id="Capa_1"
   x="0px"
   y="0px"
   width="983.17157"
   height="665"
   viewBox="0 0 983.17162 665.00001"
   xml:space="preserve"
   inkscape:version="0.48.4 r9939"
   sodipodi:docname="tablet.svg"><metadata
     id="metadata9"><rdf:RDF><cc:Work
         rdf:about=""><dc:description><xhtml:div>Original icon made by <xhtml:a
   href="http://www.freepik.com"
   alt="Freepik.com"
   title="Freepik.com">Freepik</xhtml:a> from <xhtml:a
   href="http://www.flaticon.com/free-icon/smartphone-from-the-front_488"
   title="Flaticon">www.flaticon.com</xhtml:a></xhtml:div></dc:description><dc:format>image/svg+xml</dc:format><dc:type
           rdf:resource="http://purl.org/dc/dcmitype/StillImage" /><dc:title /></cc:Work></rdf:RDF></metadata><defs
     id="defs7" /><sodipodi:namedview
     pagecolor="#ffffff"
     bordercolor="#666666"
     borderopacity="1"
     objecttolerance="10"
     gridtolerance="10"
     guidetolerance="10"
     inkscape:pageopacity="0"
     inkscape:pageshadow="2"
     inkscape:window-width="1163"
     inkscape:window-height="719"
     id="namedview5"
     showgrid="false"
     inkscape:zoom="0.70710678"
     inkscape:cx="651.70876"
     inkscape:cy="348.4472"
     inkscape:window-x="334"
     inkscape:window-y="189"
     inkscape:window-maximized="0"
     inkscape:current-layer="Capa_1"
     fit-margin-top="0"
     fit-margin-left="0"
     fit-margin-right="0"
     fit-margin-bottom="0" /><path
     d="M 983.09059,578.83536 C 982.76938,411.68332 983.73368,244.50174 982.60765,77.368278 978.67898,26.282912 921.55995,-5.8811898 868.92183,0.89897639 507.16041,1.1911739 446.59615,0.31426173 84.854923,1.3380033 28.936585,4.9102532 -6.4673529,56.897557 0.98782348,104.93218 1.3076865,265.7999 0.34502725,426.69726 1.4706404,587.54644 5.4184256,638.5646 62.386279,670.8963 115.03505,664.10103 c 361.77054,-0.2957 422.34515,0.59505 784.09489,-0.44684 46.45887,-3.55448 84.88138,-42.2252 83.96065,-84.81883 z m -931.654983,29.6248 c 0,-178.46533 0,-373.45501 0,-551.920331 294.009983,0 588.020063,0 882.030123,0 0,178.465321 0,373.455001 0,551.920331 -294.01006,0 -588.02014,0 -882.030123,0 z"
     id="path3"
     inkscape:connector-curvature="0"
     style="fill:#44ad99;fill-opacity:1"
     sodipodi:nodetypes="cccccccccccccc" /></svg>