<?xml version="1.0" encoding="UTF-8" standalone="no"?>
<svg
   xmlns:xhtml="http://www.w3.org/1999/xhtml"
   xmlns:dc="http://purl.org/dc/elements/1.1/"
   xmlns:cc="http://creativecommons.org/ns#"
   xmlns:rdf="http://www.w3.org/1999/02/22-rdf-syntax-ns#"
   xmlns:svg="http://www.w3.org/2000/svg"
   xmlns="http://www.w3.org/2000/svg"
   xmlns:sodipodi="http://sodipodi.sourceforge.net/DTD/sodipodi-0.dtd"
   xmlns:inkscape="http://www.inkscape.org/namespaces/inkscape"
   version="1.1"
   id="Capa_1"
   x="0px"
   y="0px"
   width="1051.7"
   height="665"
   viewBox="0 0 1051.7 665.00001"
   xml:space="preserve"
   inkscape:version="0.48.4 r9939"
   sodipodi:docname="tablet.svg"><metadata
     id="metadata9"><rdf:RDF><cc:Work
         rdf:about=""><dc:description><xhtml:div>Original icon made by <xhtml:a
   href="http://www.freepik.com"
   alt="Freepik.com"
   title="Freepik.com">Freepik</xhtml:a> from <xhtml:a
   href="http://www.flaticon.com/free-icon/smartphone-from-the-front_488"
   title="Flaticon">www.flaticon.com</xhtml:a></xhtml:div></dc:description><dc:format>image/svg+xml</dc:format><dc:type
           rdf:resource="http://purl.org/dc/dcmitype/StillImage" /><dc:title /></cc:Work></rdf:RDF></metadata><defs
     id="defs7" /><sodipodi:namedview
     pagecolor="#ffffff"
     bordercolor="#666666"
     borderopacity="1"
     objecttolerance="10"
     gridtolerance="10"
     guidetolerance="10"
     inkscape:pageopacity="0"
     inkscape:pageshadow="2"
     inkscape:window-width="815"
     inkscape:window-height="884"
     id="namedview5"
     showgrid="false"
     inkscape:zoom="0.93103994"
     inkscape:cx="622.52367"
     inkscape:cy="311.40839"
     inkscape:window-x="682"
     inkscape:window-y="189"
     inkscape:window-maximized="0"
     inkscape:current-layer="Capa_1"
     fit-margin-top="0"
     fit-margin-left="0"
     fit-margin-right="0"
     fit-margin-bottom="0" /><path
     d="m 1051.6133,578.83537 c -0.3436,-167.15204 0.6879,-334.33362 -0.5166,-501.467081 C 1046.8942,26.282923 985.79389,-5.881178 929.48682,0.89898826 542.51016,1.1911857 477.72449,0.3142736 90.76942,1.3380151 30.9535,4.910265 -6.9181395,56.897568 1.0566734,104.93219 1.3988314,265.79991 0.36907304,426.69727 1.573143,587.54645 c 4.2229514,51.01816 65.161538,83.34986 121.479997,76.55459 386.98643,-0.2957 451.78317,0.59505 838.74734,-0.44684 49.69712,-3.55448 90.79772,-42.2252 89.81282,-84.81883 z m -996.592567,29.6248 c 0,-178.46533 0,-373.45501 0,-551.92033 314.502867,0 629.005837,0 943.508787,0 0,178.46532 0,373.455 0,551.92033 -314.50295,0 -629.00592,0 -943.508787,0 z"
     id="path3"
     inkscape:connector-curvature="0"
     style="fill:#37abc8;fill-opacity:1"
     sodipodi:nodetypes="cccccccccccccc" /></svg>