<?xml version="1.0" encoding="utf-8"?>
<!-- Generator: Adobe Illustrator 19.0.0, SVG Export Plug-In . SVG Version: 6.00 Build 0)  -->
<svg version="1.1" id="Layer_1" xmlns="http://www.w3.org/2000/svg" xmlns:xlink="http://www.w3.org/1999/xlink" x="0px" y="0px"
	 viewBox="356.6 659 1400 400" style="enable-background:new 356.6 659 1400 400;" xml:space="preserve">
<style type="text/css">
	.st0{fill:#ECF0F1;}
	.st1{fill:#F99D1C;}
	.st2{fill:#D02E27;}
	.st3{fill:#30B4C5;}
	.st4{fill:#694D9F;}
	.st5{enable-background:new    ;}
</style>
<g id="logo">
	<title>W3C developers</title>
	<circle class="st0" cx="508.1" cy="858.8" r="40"/>
	<circle class="st0" cx="603.1" cy="763.8" r="40"/>
	<circle class="st0" cx="603.1" cy="953.8" r="40"/>
	
		<rect x="515.6" y="744.2" transform="matrix(0.7071 0.7071 -0.7071 0.7071 736.4346 -155.2065)" class="st0" width="80" height="134.4"/>
	
		<rect x="488.4" y="866.3" transform="matrix(0.7071 0.7071 -0.7071 0.7071 803.5999 -127.3839)" class="st0" width="134.3" height="80"/>
	
		<rect x="525.6" y="744.2" transform="matrix(0.7071 0.7071 -0.7071 0.7071 736.4302 -155.2074)" class="st1" width="60" height="134.4"/>
	
		<rect x="488.4" y="876.3" transform="matrix(0.7071 0.7071 -0.7071 0.7071 803.5997 -127.384)" class="st2" width="134.3" height="60"/>
	<circle class="st1" cx="603.1" cy="763.8" r="30"/>
	<circle class="st2" cx="508.1" cy="858.8" r="30"/>
	<circle class="st2" cx="603.1" cy="953.8" r="30"/>
	<circle class="st0" cx="508.1" cy="858.8" r="15"/>
	<circle class="st0" cx="603.1" cy="763.8" r="15"/>
	<circle class="st0" cx="603.1" cy="953.8" r="15"/>
	<circle class="st0" cx="1605.1" cy="859.2" r="40"/>
	<circle class="st0" cx="1510.1" cy="764.2" r="40"/>
	<circle class="st0" cx="1510.1" cy="954.2" r="40"/>
	
		<rect x="1490.5" y="771.7" transform="matrix(0.7071 0.7071 -0.7071 0.7071 1030.1489 -863.6824)" class="st0" width="134.4" height="80"/>
	
		<rect x="1517.6" y="839.5" transform="matrix(0.7071 0.7071 -0.7071 0.7071 1097.3198 -835.8562)" class="st0" width="80" height="134.4"/>
	
		<rect x="1490.5" y="781.7" transform="matrix(0.7071 0.7071 -0.7071 0.7071 1030.1444 -863.6811)" class="st3" width="134.4" height="60"/>
	
		<rect x="1527.6" y="839.5" transform="matrix(0.7071 0.7071 -0.7071 0.7071 1097.3196 -835.8563)" class="st4" width="60" height="134.4"/>
	<circle class="st4" cx="1605.1" cy="859.2" r="30"/>
	<circle class="st3" cx="1510.1" cy="764.2" r="30"/>
	<circle class="st4" cx="1510.1" cy="954.2" r="30"/>
	<circle class="st0" cx="1605.1" cy="859.2" r="15"/>
	<circle class="st0" cx="1510.1" cy="764.2" r="15"/>
	<circle class="st0" cx="1510.1" cy="954.2" r="15"/>
	<g class="st5">
		<path class="st0" d="M714.4,827.8h23.4v98.9h10.9V939h-24.2V933c-2.4,2.4-5.1,4.3-8.3,5.7c-3.1,1.4-6.7,2-10.7,2
			c-5,0-9.7-0.9-14-2.6c-4.3-1.7-8.1-4.3-11.2-7.6c-3.2-3.4-5.6-7.5-7.4-12.4c-1.8-4.9-2.7-10.5-2.7-16.8c0-5.7,0.9-10.9,2.6-15.6
			c1.7-4.7,4.1-8.7,7.3-12c3.1-3.3,6.9-5.9,11.4-7.7c4.4-1.8,9.4-2.8,14.8-2.8c3.6,0,6.8,0.4,9.8,1.2c3,0.8,5.8,2.2,8.5,4.1v-28.4
			h-10.1V827.8z M707.2,929.1c4,0,7.3-0.6,9.9-1.8c2.7-1.2,5.1-2.9,7.4-5.3v-41.4c-2.4-2-5.1-3.5-8.2-4.4c-3.1-0.9-6.3-1.4-9.5-1.4
			c-3.1,0-6.1,0.6-8.9,1.8c-2.8,1.2-5.2,2.9-7.3,5.1c-2.1,2.2-3.7,5-4.9,8.2c-1.2,3.2-1.8,7-1.8,11.1c0,4.6,0.6,8.6,1.7,12.1
			c1.1,3.5,2.7,6.4,4.8,8.8c2,2.4,4.5,4.1,7.4,5.3C700.7,928.5,703.8,929.1,707.2,929.1z"/>
		<path class="st0" d="M773.9,903.7c0,2.1,0.2,4,0.5,5.8c0.3,1.7,0.8,3.4,1.3,5c1.8,4.8,4.6,8.3,8.5,10.8c3.9,2.4,8.3,3.6,13.2,3.6
			c3.9,0,7.6-0.5,11.3-1.6c3.6-1.1,7.5-2.8,11.5-5l5.4,9.1c-4.9,3.3-9.7,5.8-14.6,7.4c-4.9,1.6-10,2.4-15.3,2.4
			c-5,0-9.6-0.8-13.9-2.5c-4.3-1.7-7.9-4.1-11-7.4c-3.1-3.3-5.5-7.4-7.2-12.3c-1.7-4.9-2.6-10.6-2.6-17.2c0-5.3,0.7-10.3,2.2-15
			c1.5-4.7,3.7-8.8,6.6-12.3c2.9-3.5,6.6-6.3,10.9-8.3c4.3-2,9.4-3.1,15.1-3.1c5.6,0,10.2,0.8,14,2.5c3.7,1.7,6.8,3.9,9.1,6.7
			c2.4,2.8,4.1,6,5.4,9.5c1.2,3.6,2.1,7.2,2.5,10.9c0.2,1.8,0.4,3.6,0.5,5.5c0.1,1.9,0.1,3.7,0.1,5.4H773.9z M794.7,874.2
			c-3.1,0-5.8,0.4-8.1,1.3c-2.3,0.9-4.3,2.1-5.9,3.8c-1.6,1.6-2.9,3.7-3.9,6c-1,2.4-1.7,5-2.2,8H813c-0.2-2.8-0.6-5.3-1.3-7.6
			c-0.7-2.3-1.8-4.4-3.2-6.1s-3.3-3-5.5-4C800.8,874.7,798,874.2,794.7,874.2z"/>
		<path class="st0" d="M839.6,865h25.6v12.3h-6.9l18.3,51l17.9-51h-4.5V865h23.4v12.3H907l-24.2,62.9h-13.1l-24.2-62.9h-5.9V865z"/>
		<path class="st0" d="M936.5,903.7c0,2.1,0.2,4,0.5,5.8c0.3,1.7,0.8,3.4,1.3,5c1.8,4.8,4.6,8.3,8.5,10.8c3.9,2.4,8.3,3.6,13.2,3.6
			c3.9,0,7.6-0.5,11.3-1.6c3.6-1.1,7.5-2.8,11.5-5l5.4,9.1c-4.9,3.3-9.7,5.8-14.6,7.4c-4.9,1.6-10,2.4-15.3,2.4
			c-5,0-9.6-0.8-13.9-2.5c-4.3-1.7-7.9-4.1-11-7.4c-3.1-3.3-5.5-7.4-7.2-12.3c-1.7-4.9-2.6-10.6-2.6-17.2c0-5.3,0.7-10.3,2.2-15
			c1.5-4.7,3.7-8.8,6.6-12.3c2.9-3.5,6.6-6.3,10.9-8.3c4.3-2,9.4-3.1,15.1-3.1c5.6,0,10.2,0.8,14,2.5c3.7,1.7,6.8,3.9,9.1,6.7
			c2.4,2.8,4.1,6,5.4,9.5c1.2,3.6,2.1,7.2,2.5,10.9c0.2,1.8,0.4,3.6,0.5,5.5c0.1,1.9,0.1,3.7,0.1,5.4H936.5z M957.3,874.2
			c-3.1,0-5.8,0.4-8.1,1.3c-2.3,0.9-4.3,2.1-5.9,3.8c-1.6,1.6-2.9,3.7-3.9,6c-1,2.4-1.7,5-2.2,8h38.4c-0.2-2.8-0.6-5.3-1.3-7.6
			c-0.7-2.3-1.8-4.4-3.2-6.1s-3.3-3-5.5-4C963.4,874.7,960.6,874.2,957.3,874.2z"/>
		<path class="st0" d="M1007.3,827.8h24v98.9h11.1V939h-35.2v-12.3h10.7v-86.6h-10.7V827.8z"/>
		<path class="st0" d="M1054.5,902c0-5.9,1-11.2,2.8-16c1.8-4.8,4.4-8.9,7.7-12.4s7.2-6.1,11.7-8c4.5-1.9,9.5-2.8,14.9-2.8
			c5.5,0,10.5,0.9,15,2.8c4.5,1.9,8.4,4.5,11.7,7.9c3.2,3.4,5.8,7.5,7.6,12.3c1.8,4.8,2.7,10.1,2.7,16c0,5.8-0.9,11.1-2.7,15.9
			c-1.8,4.8-4.3,9-7.6,12.5c-3.2,3.5-7.1,6.2-11.7,8.1c-4.5,1.9-9.6,2.9-15,2.9c-5.6,0-10.6-1-15.2-2.9c-4.5-1.9-8.4-4.6-11.6-8
			c-3.2-3.5-5.8-7.6-7.6-12.4C1055.5,913.1,1054.5,907.8,1054.5,902z M1068.6,902c0,4.2,0.6,8.1,1.8,11.5c1.2,3.4,2.9,6.3,5,8.8
			c2.1,2.4,4.6,4.3,7.4,5.6c2.8,1.3,5.8,2,8.9,2c3.3,0,6.3-0.6,9.2-1.9c2.8-1.3,5.3-3.1,7.4-5.5c2.1-2.4,3.7-5.3,4.9-8.8
			c1.2-3.4,1.8-7.3,1.8-11.6c0-4.5-0.6-8.5-1.8-11.9c-1.2-3.5-2.8-6.4-4.9-8.7c-2.1-2.3-4.5-4.1-7.4-5.3c-2.9-1.2-5.9-1.8-9.2-1.8
			c-3.1,0-6.1,0.6-8.9,1.8c-2.8,1.2-5.2,3-7.4,5.3c-2.1,2.3-3.8,5.2-5,8.7S1068.6,897.5,1068.6,902z"/>
		<path class="st0" d="M1140.1,865h23.6v6.1c3.1-2.4,6.6-4.4,10.3-5.8c3.7-1.4,7.5-2.1,11.5-2.1c4.9,0,9.3,0.9,13.4,2.7
			c4,1.8,7.5,4.4,10.5,7.6s5.2,7.2,6.8,11.8c1.6,4.6,2.4,9.7,2.4,15.3c0,6-0.9,11.4-2.7,16.3c-1.8,4.9-4.3,9.1-7.5,12.6
			c-3.2,3.5-7,6.2-11.5,8.2s-9.3,2.9-14.6,2.9c-3.8,0-7.1-0.4-10-1.2s-5.7-1.8-8.4-3v23.9h11.6v12.3h-35.2v-12.3h10.1v-83.1h-10.3
			V865z M1182,874.9c-3.4,0-6.7,0.7-9.9,2.1c-3.2,1.4-5.9,3.3-8.3,5.7v40.1c1.6,1.6,3.8,3.1,6.8,4.4s6.6,1.9,11,1.9
			c3,0,6-0.6,8.8-1.8c2.8-1.2,5.3-3,7.4-5.3c2.1-2.4,3.9-5.3,5.1-8.8c1.3-3.5,1.9-7.5,1.9-12.1c0-4.2-0.6-7.9-1.8-11.1
			c-1.2-3.2-2.9-6-4.9-8.2c-2.1-2.2-4.5-3.9-7.3-5.1C1188.1,875.5,1185.1,874.9,1182,874.9z"/>
		<path class="st0" d="M1244.9,903.7c0,2.1,0.2,4,0.5,5.8c0.3,1.7,0.8,3.4,1.3,5c1.8,4.8,4.6,8.3,8.5,10.8s8.3,3.6,13.2,3.6
			c3.9,0,7.6-0.5,11.3-1.6c3.6-1.1,7.5-2.8,11.5-5l5.4,9.1c-4.9,3.3-9.7,5.8-14.6,7.4c-4.9,1.6-10,2.4-15.3,2.4
			c-5,0-9.6-0.8-13.9-2.5c-4.3-1.7-7.9-4.1-11-7.4s-5.5-7.4-7.2-12.3c-1.7-4.9-2.6-10.6-2.6-17.2c0-5.3,0.7-10.3,2.2-15
			c1.5-4.7,3.7-8.8,6.6-12.3c2.9-3.5,6.6-6.3,10.9-8.3c4.3-2,9.4-3.1,15.1-3.1c5.6,0,10.2,0.8,14,2.5c3.7,1.7,6.8,3.9,9.1,6.7
			c2.4,2.8,4.1,6,5.4,9.5c1.2,3.6,2.1,7.2,2.5,10.9c0.2,1.8,0.4,3.6,0.5,5.5c0.1,1.9,0.1,3.7,0.1,5.4H1244.9z M1265.7,874.2
			c-3.1,0-5.8,0.4-8.1,1.3c-2.3,0.9-4.3,2.1-5.9,3.8c-1.6,1.6-2.9,3.7-3.9,6c-1,2.4-1.7,5-2.2,8h38.4c-0.2-2.8-0.6-5.3-1.3-7.6
			c-0.7-2.3-1.8-4.4-3.2-6.1c-1.4-1.7-3.3-3-5.5-4C1271.7,874.7,1269,874.2,1265.7,874.2z"/>
		<path class="st0" d="M1369.5,880.6h-13.6v-4.6c-1.6,0-3.2,0.3-4.8,0.9s-3.2,1.5-4.6,2.7c-1.4,1.2-2.7,2.8-3.8,4.6
			c-1.1,1.9-1.8,4.1-2.3,6.7v35.7h12.6V939h-36.7v-12.3h10.2l0.1-49.5h-10.3V865h23.7v10.2c0.9-1.5,1.8-2.9,2.9-4.3
			c1.1-1.3,2.3-2.5,3.6-3.4c1.3-1,2.8-1.7,4.4-2.3c1.6-0.5,3.3-0.8,5.2-0.8c2.5,0,4.8,0,7,0s4.4,0,6.6,0.1V880.6z"/>
		<path class="st0" d="M1426.2,879.7c-0.9-1.4-2.1-2.5-3.6-3.4c-1.5-0.9-3.1-1.5-4.9-1.9c-1.8-0.4-3.6-0.6-5.3-0.6
			c-1.9,0-3.7,0.2-5.3,0.6c-1.6,0.4-3,1-4.1,1.9c-1.1,0.8-2,1.8-2.7,3c-0.6,1.2-1,2.5-1,3.9c0,2.5,0.8,4.4,2.3,5.9
			c1.5,1.5,4,2.8,7.5,4l14.2,5c6.1,2,10.6,4.8,13.4,8.4c2.8,3.5,4.2,7.7,4.2,12.6c0,3.3-0.7,6.3-2,9c-1.3,2.7-3.2,5.1-5.6,7
			c-2.4,1.9-5.3,3.4-8.7,4.5c-3.4,1.1-7.1,1.6-11.3,1.6c-5.8,0-10.5-0.9-14.1-2.8c-3.6-1.9-6.4-4.3-8.4-7.4h-7.4v-12.3h14.8
			c0,2,0.4,3.8,1.3,5.3c0.9,1.5,2,2.6,3.5,3.5c1.5,0.9,3.1,1.6,4.9,2s3.7,0.6,5.6,0.6c1.9,0,3.6-0.2,5.4-0.7c1.7-0.5,3.2-1.1,4.5-2
			c1.3-0.9,2.3-1.9,3.1-3.2c0.8-1.2,1.1-2.6,1.1-4.2c0-2.4-0.8-4.4-2.3-6.1c-1.5-1.7-4.2-3.2-7.9-4.5l-14.1-5.3
			c-5.8-2-10-4.7-12.8-7.8c-2.8-3.2-4.2-7.1-4.2-11.9c0-3.1,0.6-6,1.8-8.7c1.2-2.7,2.9-5,5.1-6.9c2.2-1.9,4.9-3.4,8.1-4.5
			c3.2-1.1,6.8-1.6,10.9-1.6c5.3,0,9.7,0.7,13.3,2.2c3.6,1.5,6.8,4,9.6,7.6h6.9v12.3h-14.6C1427.6,882.9,1427.1,881.2,1426.2,879.7z
			"/>
	</g>
	<g>
		<g image-rendering="optimizeQuality" shape-rendering="geometricPrecision" text-rendering="geometricPrecision">
			<g image-rendering="optimizeQuality" shape-rendering="geometricPrecision" text-rendering="geometricPrecision">
				<g id="Background_1_">
				</g>
				<g id="Guides_1_">
				</g>
				<g id="Foreground_1_">
					<g>
						<path class="st0" d="M834.5,753l14.7,50l14.7-50h10.7h29.3v5l-15,25.9c5.3,1.7,9.2,4.8,12,9.2c2.7,4.5,4.1,9.7,4.1,15.7
							c0,7.4-2,13.7-5.9,18.8c-4,5.1-9.1,7.6-15.3,7.6c-4.7,0-8.9-1.5-12.4-4.5s-6.1-7.1-7.8-12.2l8.3-3.5c1.2,3.1,2.8,5.6,4.8,7.4
							c2,1.8,4.3,2.7,7,2.7c2.9,0,5.2-1.6,7.2-4.8c2-3.2,3-7,3-11.4c0-5-1-8.7-3.1-11.4c-2.4-3.2-6.3-4.8-11.4-4.8h-4.1v-4.9
							l14.2-24.5h-17.2l-1,1.7l-20.8,70.3h-1l-15.2-50.9l-15.2,50.9h-1L793.5,753h10.7l14.7,50l10-33.7l-4.9-16.3
							C823.9,753,834.5,753,834.5,753z"/>
					</g>
					<path class="st0" d="M959.2,753c-2.1,0-4,0.8-5.4,2.2c-1.5,1.5-2.4,3.5-2.4,5.6s0.8,4,2.3,5.4c1.5,1.5,3.4,2.3,5.5,2.3
						c2,0,4-0.8,5.5-2.3c1.5-1.4,2.3-3.3,2.3-5.4c0-2.1-0.8-4-2.3-5.4C963.2,753.8,961.3,753,959.2,753z M965.9,760.8
						c0,1.8-0.7,3.5-2,4.7c-1.3,1.3-3,2-4.8,2c-1.7,0-3.4-0.7-4.7-2c-1.3-1.3-2-3-2-4.7c0-1.8,0.7-3.5,2-4.8
						c1.2-1.3,2.9-1.9,4.7-1.9c1.9,0,3.5,0.7,4.8,2C965.3,757.3,965.9,758.9,965.9,760.8z M959.4,756.3h-3.3v8.8h1.7v-3.7h1.7
						l1.8,3.7h1.9l-2-4c1.3-0.3,2-1.1,2-2.4C963.1,757,961.9,756.3,959.4,756.3z M959.1,757.3c1.5,0,2.3,0.4,2.3,1.5
						c0,1-0.7,1.4-2.2,1.4h-1.4v-2.9C957.7,757.3,959.1,757.3,959.1,757.3z"/>
				</g>
				<g id="Calque_1_1_">
					<g>
						<path class="st0" d="M946.1,752.6l1.7,10.5l-6.1,11.7c0,0-2.4-5-6.2-7.7c-3.3-2.3-5.4-2.8-8.7-2.1c-4.3,0.9-9.2,6-11.3,12.4
							c-2.5,7.6-2.6,11.2-2.6,14.6c-0.2,5.4,0.7,8.6,0.7,8.6s-3.7-6.9-3.7-16.9c0-7.2,1.2-13.7,4.5-20.1c2.9-5.7,7.3-9,11.1-9.4
							c4-0.4,7.2,1.5,9.6,3.6c2.5,2.2,5.1,6.9,5.1,6.9L946.1,752.6z"/>
						<path class="st0" d="M946.9,811.9c0,0-2.7,4.8-4.4,6.7c-1.7,1.9-4.7,5.1-8.4,6.8s-5.7,1.9-9.4,1.6c-3.7-0.3-7.1-2.5-8.3-3.4
							c-1.2-0.9-4.2-3.5-6-5.9s-4.4-7.3-4.4-7.3s1.5,4.9,2.4,6.9c0.5,1.2,2.2,4.8,4.6,8c2.2,3,6.5,8,13,9.2c6.5,1.2,11-1.8,12.1-2.5
							s3.5-2.6,4.9-4.2c1.5-1.7,3-3.7,3.8-5c0.6-0.9,1.5-2.8,1.5-2.8L946.9,811.9z"/>
					</g>
				</g>
			</g>
		</g>
	</g>
</g>
</svg>
